name Walk1.mot
datacolumns 19
datarows 10
range 3.41700000 3.42600000
endheader

                time	   L_ground_force_vx	   L_ground_force_vy	   L_ground_force_vz	   L_ground_force_px	   L_ground_force_py	   L_ground_force_pz	   R_ground_force_vx	   R_ground_force_vy	   R_ground_force_vz	   R_ground_force_px	   R_ground_force_py	   R_ground_force_pz	   L_ground_torque_x	   L_ground_torque_y	   L_ground_torque_z	   R_ground_torque_x	   R_ground_torque_y	   R_ground_torque_z	
          3.41700000	          9.04064970	        742.51624563	         50.82742686	         -0.24756082	          0.00000000	         -0.10223236	          0.00000000	          0.00000000	          0.00000000	          0.00000000	          0.00000000	          0.00000000	          0.00000000	          2.15392390	          0.00000000	          0.00000000	          0.00000000	          0.00000000	
          3.41800000	          9.39748465	        742.98557760	         50.91691820	         -0.24715373	          0.00000000	         -0.10232096	          0.00000000	          0.00000000	          0.00000000	          0.00000000	          0.00000000	          0.00000000	          0.00000000	          2.14283066	          0.00000000	          0.00000000	          0.00000000	          0.00000000	
          3.41900000	          9.81386448	        743.48568641	         50.98937998	         -0.24671820	          0.00000000	         -0.10235451	          0.00000000	          0.00000000	          0.00000000	          0.00000000	          0.00000000	          0.00000000	          0.00000000	          2.14072949	          0.00000000	          0.00000000	          0.00000000	          0.00000000	
          3.42000000	         10.25697038	        744.08869913	         51.06476598	         -0.24628669	          0.00000000	         -0.10234953	          0.00000000	          0.00000000	          0.00000000	          0.00000000	          0.00000000	          0.00000000	          0.00000000	          2.14959042	          0.00000000	          0.00000000	          0.00000000	          0.00000000	
          3.42100000	         10.69214196	        744.79991353	         51.16038897	         -0.24587629	          0.00000000	         -0.10232610	          0.00000000	          0.00000000	          0.00000000	          0.00000000	          0.00000000	          0.00000000	          0.00000000	          2.16911880	          0.00000000	          0.00000000	          0.00000000	          0.00000000	
          3.42200000	         11.10072300	        745.59390367	         51.28506890	         -0.24548715	          0.00000000	         -0.10229176	          0.00000000	          0.00000000	          0.00000000	          0.00000000	          0.00000000	          0.00000000	          0.00000000	          2.19486572	          0.00000000	          0.00000000	          0.00000000	          0.00000000	
          3.42300000	         11.47885444	        746.44645045	         51.43674015	         -0.24511774	          0.00000000	         -0.10226280	          0.00000000	          0.00000000	          0.00000000	          0.00000000	          0.00000000	          0.00000000	          0.00000000	          2.21867191	          0.00000000	          0.00000000	          0.00000000	          0.00000000	
          3.42400000	         11.83194523	        747.32649305	         51.60262179	         -0.24476960	          0.00000000	         -0.10226337	          0.00000000	          0.00000000	          0.00000000	          0.00000000	          0.00000000	          0.00000000	          0.00000000	          2.23450872	          0.00000000	          0.00000000	          0.00000000	          0.00000000	
          3.42500000	         12.17324269	        748.17574322	         51.76499157	         -0.24444062	          0.00000000	         -0.10229779	          0.00000000	          0.00000000	          0.00000000	          0.00000000	          0.00000000	          0.00000000	          0.00000000	          2.24126496	          0.00000000	          0.00000000	          0.00000000	          0.00000000	
          3.42600000	         12.51751434	        748.92768323	         51.91206569	         -0.24412751	          0.00000000	         -0.10235321	          0.00000000	          0.00000000	          0.00000000	          0.00000000	          0.00000000	          0.00000000	          0.00000000	          2.23905910	          0.00000000	          0.00000000	          0.00000000	          0.00000000	
